HIERARCHY
ROOT Pelvis
{
	OFFSET 0.000000 0.000000 0.000000
	CHANNELS 6 Xposition Yposition Zposition Xrotation Yrotation Zrotation
	JOINT LeftUpLeg_virtual
	{
		OFFSET 0.000000 0.000000 0.000000
		CHANNELS 3 Xrotation Yrotation Zrotation
		JOINT LeftUpLeg
		{
			OFFSET 18.735201 -5.666702 -4.541200
			CHANNELS 3 Xrotation Yrotation Zrotation
			JOINT LeftLeg
			{
				OFFSET -0.021200 -31.938179 0.493100
				CHANNELS 3 Xrotation Yrotation Zrotation
				JOINT LeftFoot
				{
					OFFSET 0.021200 -31.938179 -4.336299
					CHANNELS 3 Xrotation Yrotation Zrotation
					JOINT LeftToeBase
					{
						OFFSET 0.943001 -26.722000 15.023500
						CHANNELS 3 Xrotation Yrotation Zrotation
						End Site
						{
							OFFSET 0 0 0
						}
					}
				}
			}
		}
	}
	JOINT RightUpLeg_virtual
	{
		OFFSET 0.000000 0.000000 0.000000
		CHANNELS 3 Xrotation Yrotation Zrotation
		JOINT RightUpLeg
		{
			OFFSET -18.735201 -5.666702 -4.541200
			CHANNELS 3 Xrotation Yrotation Zrotation
			JOINT RightLeg
			{
				OFFSET 0.018946 -31.938133 0.493100
				CHANNELS 3 Xrotation Yrotation Zrotation
				JOINT RightFoot
				{
					OFFSET -0.018946 -31.938126 -4.336299
					CHANNELS 3 Xrotation Yrotation Zrotation
					JOINT RightToeBase
					{
						OFFSET -0.943001 -26.722004 15.023500
						CHANNELS 3 Xrotation Yrotation Zrotation
						End Site
						{
							OFFSET 0 0 0
						}
					}
				}
			}
		}
	}
	JOINT Hips_virtual
	{
		OFFSET 0.000000 0.000000 0.000000
		CHANNELS 3 Xrotation Yrotation Zrotation
		JOINT Hips
		{
			OFFSET -0.000000 -0.000000 -0.000000
			CHANNELS 3 Xrotation Yrotation Zrotation
			JOINT Spine
			{
				OFFSET 0.000000 10.199997 -0.299500
				CHANNELS 3 Xrotation Yrotation Zrotation
				JOINT Spine1
				{
					OFFSET 0.000000 11.900002 -1.516600
					CHANNELS 3 Xrotation Yrotation Zrotation
					JOINT Spine2
					{
						OFFSET 0.000000 13.600006 -2.842500
						CHANNELS 3 Xrotation Yrotation Zrotation
						JOINT Neck_virtual
						{
							OFFSET 0.000000 0.000000 0.000000
							CHANNELS 3 Xrotation Yrotation Zrotation
							JOINT Neck
							{
								OFFSET 0.000000 9.624100 -2.890100
								CHANNELS 3 Xrotation Yrotation Zrotation
								JOINT Head
								{
									OFFSET 0.000000 14.068802 -1.351900
									CHANNELS 3 Xrotation Yrotation Zrotation
									End Site
									{
										OFFSET 0 0 0
									}
								}
							}
						}
						JOINT LeftShoulder_virtual
						{
							OFFSET 0.000000 0.000000 0.000000
							CHANNELS 3 Xrotation Yrotation Zrotation
							JOINT LeftShoulder
							{
								OFFSET 15.263000 10.923401 -0.547700
								CHANNELS 3 Xrotation Yrotation Zrotation
								JOINT LeftArm
								{
									OFFSET 25.438599 -2.830597 -13.032500
									CHANNELS 3 Xrotation Yrotation Zrotation
									JOINT LeftForeArm
									{
										OFFSET 29.960503 0.000000 0.000000
										CHANNELS 3 Xrotation Yrotation Zrotation
										JOINT LeftHand
										{
											OFFSET 27.849251 0.000000 0.000000
											CHANNELS 3 Xrotation Yrotation Zrotation
											End Site
											{
												OFFSET 0 0 0
											}
										}
									}
								}
							}
						}
						JOINT RightShoulder_virtual
						{
							OFFSET 0.000000 0.000000 0.000000
							CHANNELS 3 Xrotation Yrotation Zrotation
							JOINT RightShoulder
							{
								OFFSET -15.263000 10.923401 -0.547700
								CHANNELS 3 Xrotation Yrotation Zrotation
								JOINT RightArm
								{
									OFFSET -25.438599 -2.830597 -13.032500
									CHANNELS 3 Xrotation Yrotation Zrotation
									JOINT RightForeArm
									{
										OFFSET -29.960503 0.000000 0.000000
										CHANNELS 3 Xrotation Yrotation Zrotation
										JOINT RightHand
										{
											OFFSET -27.849251 0.000000 0.000000
											CHANNELS 3 Xrotation Yrotation Zrotation
											End Site
											{
												OFFSET 0 0 0
											}
										}
									}
								}
							}
						}
					}
				}
			}
		}
	}
}
MOTION
Frames: 4
Frame Time: 0.03333333
-4.825986 26.418102 9.150995 0.000000 0.000000 0.000000 73.087792 4.254332 -12.477613 -0.886914 6.350861 -5.245950 19.142684 2.060939 4.252079 -4.637464 -5.166484 7.742807 0.000000 0.000000 0.000000 73.953655 5.088043 -13.521574 -6.777419 -7.300086 -8.565908 25.551410 -2.087839 -10.317598 0.931261 29.182854 12.476315 0.000000 0.000000 0.000000 71.966479 5.473183 -11.925085 -0.892600 0.027019 -0.147773 5.106005 -5.717929 1.244215 6.029293 -1.141366 -1.636058 0.000000 0.000000 0.000000 2.599899 0.585408 -0.449585 1.644136 -3.185533 0.539141 0.000000 0.000000 0.000000 7.867942 0.384751 1.918393 -0.147314 -14.221125 -4.956614 -20.179780 -43.365114 -30.595904 -8.259562 -46.367764 -8.837728 0.000000 0.000000 0.000000 3.154823 0.492688 -2.473030 1.065834 18.286636 20.561376 -17.809669 20.149183 43.288359 57.901180 53.184409 -61.752956 0.000000 0.000000 0.000000 
-4.790181 26.443153 9.012375 0.000000 0.000000 0.000000 73.065348 4.051342 -12.502343 -1.271035 6.312103 -5.102204 19.581869 2.259070 4.362788 -3.925286 -5.125986 7.835716 0.000000 0.000000 0.000000 73.982813 4.831851 -13.550645 -6.952125 -7.482798 -8.385019 25.556433 -2.171860 -10.230918 0.382781 28.843086 12.489613 0.000000 0.000000 0.000000 71.982612 5.260743 -11.937389 -0.899283 0.011968 -0.158747 5.195269 -5.786429 1.193921 5.846922 -1.197686 -1.553270 0.000000 0.000000 0.000000 2.943970 0.554639 -0.453102 1.587297 -3.192468 0.600647 0.000000 0.000000 0.000000 8.025899 0.352893 1.854443 -0.127473 -14.091324 -4.887216 -20.576032 -43.395757 -30.513689 -8.091838 -45.930659 -8.793269 0.000000 0.000000 0.000000 2.797550 0.465596 -2.320318 1.430601 18.302253 20.368850 -17.637263 19.446565 43.012119 59.127800 53.628262 -62.676773 0.000000 0.000000 0.000000 
-4.786095 26.547302 8.822531 0.000000 0.000000 0.000000 72.989143 3.698500 -12.417454 -1.612968 6.073780 -4.967376 19.758605 2.461518 4.654317 -3.321148 -5.225262 7.820764 0.000000 0.000000 0.000000 73.969583 4.458299 -13.480059 -7.015066 -7.716243 -8.208491 25.622370 -2.225063 -10.130803 -0.130389 28.524673 12.586230 0.000000 0.000000 0.000000 71.949418 4.936518 -11.862599 -0.905762 0.014159 -0.167958 5.280667 -5.825332 1.017153 5.738629 -1.244990 -1.385484 0.000000 0.000000 0.000000 3.384808 0.526936 -0.430863 1.559014 -3.190712 0.705725 0.000000 0.000000 0.000000 8.248265 0.343631 1.810357 -0.021335 -14.172249 -4.170040 -20.776940 -43.171624 -30.589156 -7.954293 -45.997103 -9.035952 0.000000 0.000000 0.000000 2.541724 0.464357 -2.097858 1.761245 18.867388 20.036070 -16.846943 17.335829 41.711979 62.245283 54.898820 -65.114878 0.000000 0.000000 0.000000 
-4.824148 26.743790 8.612350 0.000000 0.000000 0.000000 72.921340 3.237452 -12.246126 -1.751174 5.640990 -4.849153 19.397505 2.650992 5.078499 -2.809740 -5.474889 7.561227 0.000000 0.000000 0.000000 73.951571 3.995433 -13.308402 -6.935721 -7.903804 -8.017972 25.643648 -2.168623 -9.992113 -0.451751 28.329108 12.869237 0.000000 0.000000 0.000000 71.902815 4.556944 -11.727682 -0.906379 0.027023 -0.171093 5.297187 -5.838277 0.720478 5.707577 -1.290007 -1.161358 0.000000 0.000000 0.000000 3.848140 0.511138 -0.393287 1.560638 -3.181459 0.841267 0.000000 0.000000 0.000000 8.512800 0.356831 1.773102 0.166183 -14.451140 -2.877096 -20.781679 -42.633573 -30.881450 -7.905631 -46.703618 -9.601381 0.000000 0.000000 0.000000 2.412491 0.487903 -1.841441 2.074145 19.941292 19.497461 -15.710859 14.058943 39.702667 67.008459 56.695792 -68.858593 0.000000 0.000000 0.000000 
